<?xml version="1.0" encoding="UTF-8"?>
<svg id="Layer_1" xmlns="http://www.w3.org/2000/svg" version="1.1" viewBox="0 0 869 474.7">
  <!-- Generator: Adobe Illustrator 29.0.1, SVG Export Plug-In . SVG Version: 2.1.0 Build 192)  -->
  <defs>
    <style>
      .st0 {
        fill: #2f2e41;
      }

      .st1 {
        fill: #fff;
      }

      .st2 {
        fill: #e5e5e5;
      }

      .st3 {
        fill: #3f3d56;
      }

      .st4, .st5 {
        fill: #f2f2f2;
      }

      .st6 {
        fill: #3c6973;
      }

      .st7 {
        opacity: .1;
      }

      .st7, .st5 {
        isolation: isolate;
      }

      .st8 {
        fill: #f1f1f1;
      }

      .st9 {
        fill: #cbcbcb;
      }

      .st10 {
        fill: #ccc;
      }

      .st11 {
        fill: #ffb7b7;
      }
    </style>
  </defs>
  <path class="st4" d="M47.5,432.3c-18.5,15.8-22.4,41.7-22.4,41.7,0,0,26.2.3,44.7-15.5s22.4-41.7,22.4-41.7c0,0-26.2-.3-44.7,15.5Z"/>
  <path class="st4" d="M56,438.6c-7.9,23-30.6,36.1-30.6,36.1,0,0-9.9-24.2-2-47.3s30.6-36.1,30.6-36.1c0,0,9.9,24.2,2,47.3Z"/>
  <path class="st0" d="M249.3,98c-4.2-5.4-10.1-10.5-10.5-17.2-.3-6.1,4.2-12.2,2.3-18.1-1.5-4.5-6.4-7.2-11.2-8.7-9.2-2.7-19-2.3-27.9,1.1l.5-.3c-5.5-1.9-11.8,0-16.1,3.8-4.3,3.7-6.8,8.9-8.8,14-2,5.2-3.5,10.5-6.3,15.3-2.7,4.8-7,9.2-12.5,10.9,1.9,3.7,7.7,5,11.1,2.4.9-.7,1.7-1.5,2.3-2.4,2.3-2.8,4.5-5.5,6.8-8.3,2.3,4.2-1.2,9.9,1.7,13.8,1.5,2,4.2,2.7,6.7,3.3,19.7,4.2,40,3.4,59.3-2.2,1.6-.5,3.3-1.1,3.9-2.5.7-1.6-.3-3.4-1.4-4.9Z"/>
  <path class="st11" d="M305,119.1c-.1.5-.2,1.1-.2,1.6l-43,24.8-10.4-6-11.1,14.6,17.5,12.4c2.9,2.1,6.8,2,9.6-.2l44.3-34.9c5.4,2,11.5-.8,13.5-6.2s-.8-11.5-6.2-13.5c-5.4-2-11.5.8-13.5,6.2-.2.4-.3.8-.4,1.2Z"/>
  <path class="st6" d="M260.4,146.7l-13.9,18c-1.5,2-4.3,2.3-6.3.8-.2-.1-.3-.3-.5-.4l-15.7-16.3c-5.4-4.2-6.4-12.1-2.2-17.5,4.2-5.4,12.1-6.4,17.5-2.2l19.7,11c2.2,1.2,2.9,4,1.7,6.1-.1.2-.2.4-.4.6h0Z"/>
  <polygon class="st11" points="241.3 460.3 253.5 460.3 259.4 413 241.3 413 241.3 460.3"/>
  <path class="st0" d="M238.2,456.3h24.1s0,0,0,0c8.5,0,15.4,6.9,15.4,15.4v.5h-39.5s0-15.9,0-15.9Z"/>
  <polygon class="st11" points="157.3 460.3 169.5 460.3 175.4 413 157.3 413 157.3 460.3"/>
  <path class="st0" d="M154.2,456.3h24.1s0,0,0,0c8.5,0,15.4,6.9,15.4,15.4v.5h-39.5s0-15.9,0-15.9Z"/>
  <circle class="st11" cx="212.9" cy="89" r="21.2"/>
  <path class="st0" d="M225.3,120.7l12.5,6.2s13.9,24.2,5.9,47.2c-3.9,11.2,7.1,46.8,7.1,46.8,0,0,16.9,161.2,17,211-21.1,3.2-41.1,7.2-42.1-2.8s-11.9-128.2-11.9-128.2c0,0-15.1,131.2-27.1,133.2s-36-1-36-1c0,0,19.1-192.2,32.1-204.2l2-10v-89.8c0,0,14.9-7.1,14.9-7.1l25.6-1.3Z"/>
  <path class="st11" d="M180.6,257c5.2-2.8,7.2-9.3,4.3-14.6-.3-.6-.7-1.1-1-1.6l14.5-96.8-19-.9-11.3,96.4c-4.4,4-4.7,10.8-.7,15.3,3.4,3.7,8.8,4.6,13.2,2.2h0Z"/>
  <path class="st6" d="M198,168.3l-22.7-1.4c-2.5-.2-4.4-2.3-4.2-4.8,0-.2,0-.4,0-.7l4.7-22.2c.5-6.9,6.4-12.1,13.3-11.6,6.9.5,12,6.4,11.6,13.3l1.9,22.5c.2,2.5-1.6,4.7-4.1,4.9-.2,0-.4,0-.7,0h0Z"/>
  <path class="st3" d="M824.9,76.6h-501.6c-7.6,0-13.8,6.2-13.8,13.8v279.5c0,7.6,6.2,13.8,13.8,13.8h501.6c7.6,0,13.8-6.2,13.8-13.8V90.4c0-7.6-6.2-13.8-13.8-13.8h0Z"/>
  <rect class="st1" x="328" y="101" width="492.2" height="277.6"/>
  <circle class="st1" cx="573.7" cy="88.4" r="5"/>
  <polygon class="st5" points="679.4 378.6 328 378.6 328 101 679.4 378.6"/>
  <path class="st3" d="M852.5,373.6h-48v-3.5c0-.4-.3-.7-.7-.7h-16.5c-.4,0-.7.3-.7.7h0v3.5h-10.3v-3.5c0-.4-.3-.7-.7-.7h-16.5c-.4,0-.7.3-.7.7h0v3.5h-10.3v-3.5c0-.4-.3-.7-.7-.7h-16.5c-.4,0-.7.3-.7.7h0v3.5h-10.3v-3.5c0-.4-.3-.7-.7-.7h-16.5c-.4,0-.7.3-.7.7h0v3.5h-10.3v-3.5c0-.4-.3-.7-.7-.7h-16.5c-.4,0-.7.3-.7.7h0v3.5h-10.3v-3.5c0-.4-.3-.7-.7-.7h-16.5c-.4,0-.7.3-.7.7h0v3.5h-10.3v-3.5c0-.4-.3-.7-.7-.7h-129c-.4,0-.7.3-.7.7h0v3.5h-10.3v-3.5c0-.4-.3-.7-.7-.7h-16.5c-.4,0-.7.3-.7.7h0v3.5h-10.3v-3.5c0-.4-.3-.7-.7-.7h-16.5c-.4,0-.7.3-.7.7h0v3.5h-10.3v-3.5c0-.4-.3-.7-.7-.7h-16.5c-.4,0-.7.3-.7.7h0v3.5h-10.3v-3.5c0-.4-.3-.7-.7-.7h-16.5c-.4,0-.7.3-.7.7h0v3.5h-10.3v-3.5c0-.4-.3-.7-.7-.7h-16.5c-.4,0-.7.3-.7.7v3.5h-10.3v-3.5c0-.4-.3-.7-.7-.7h-16.5c-.4,0-.7.3-.7.7h0v3.5h-31.6c-9.1,0-16.5,7.4-16.5,16.5v7.4c0,9.1,7.4,16.5,16.5,16.5h547.6c9.1,0,16.5-7.4,16.5-16.5v-7.4c0-9.1-7.4-16.5-16.5-16.5h0Z"/>
  <path class="st3" d="M583.6,342.2c-.2.4-.3.8-.6,1.1-1.1,2-2.6,3.7-4.4,5-6.6,4.6-15.7,3-20.3-3.5-1.7-2.5-2.7-5.4-2.7-8.4v-2.4h2c7.8,5,16.7,7.8,25.9,8.1Z"/>
  <path class="st3" d="M612,334.8v1.7c0,8-6.5,14.6-14.6,14.6-5.3,0-10.2-2.9-12.8-7.6-.2-.4-.4-.8-.6-1.2.4,0,.8,0,1.3,0,9.4,0,18.6-2.6,26.6-7.5Z"/>
  <path class="st3" d="M631.6,159c-.4,0-.9-.1-1.3-.1,5,11.6,5.4,24.7,1,36.6.4,0,.9-.1,1.3-.2,10-1.9,16.5-11.6,14.5-21.5-1.5-7.7-7.7-13.6-15.5-14.7h0Z"/>
  <path class="st3" d="M540.4,158.9c-.4,0-.9,0-1.3.1-10.1,1.4-17.1,10.7-15.7,20.7,1.1,7.8,7,14,14.7,15.5.4,0,.9.2,1.3.2-4.4-11.9-4.1-25,1-36.6h0Z"/>
  <path class="st3" d="M631.6,159c-10.7-25.6-40.1-37.6-65.6-26.9-25.6,10.7-37.6,40.1-26.9,65.6,10.7,25.6,40.1,37.6,65.6,26.9,18.7-7.8,30.8-26.1,30.8-46.3,0-6.6-1.3-13.2-3.9-19.4ZM631.3,195.4c-9.4,25.4-37.6,38.3-63,28.8-25.4-9.4-38.3-37.6-28.8-63,9.4-25.4,37.6-38.3,63-28.8,19.2,7.1,31.9,25.4,31.9,45.9,0,5.8-1,11.6-3.1,17.1Z"/>
  <path class="st3" d="M611,167h-51.3c-5.6,0-10.2,4.6-10.2,10.2,0,5.6,4.6,10.2,10.2,10.2h51.3c5.6,0,10.2-4.6,10.2-10.2,0-5.6-4.6-10.2-10.2-10.2Z"/>
  <path class="st3" d="M631.3,265.5c-.2-.3-.4-.7-.6-1,0,0,0,0,0,0-14.6-25-46.8-33.5-71.8-18.8-25,14.6-33.5,46.8-18.8,71.8,9,15.4,25.1,25.1,42.9,26,.6,0,1.1,0,1.7,0,.2,0,.5,0,.7,0,9.4,0,18.6-2.5,26.6-7.3,8.8-5.2,15.8-12.8,20.4-21.9,0,0,0,0,0,0,.2-.3.3-.7.5-1.1,7.1-15.2,6.5-32.9-1.6-47.6h0ZM631.8,312.8c-.2.4-.3.7-.5,1.1-4.3,8.6-11,15.9-19.2,20.9-8,4.9-17.2,7.5-26.6,7.5-.4,0-.8,0-1.3,0-.2,0-.4,0-.5,0-28.3-1-50.5-24.8-49.5-53.1,1-28.3,24.8-50.5,53.1-49.5,17.5.6,33.5,10.1,42.4,25.2,0,0,0,0,0,0,.2.3.4.7.6,1,8.1,14.5,8.7,32,1.7,47h0Z"/>
  <path class="st3" d="M625.7,267.1c-1-.7-2.2-1.1-3.5-1.1h-22.9c-3.3,0-6,2.7-6,6s2.7,6,6,6h22.9c.4,0,.8,0,1.2-.1.4,0,.8-.2,1.2-.4,3.1-1.3,4.5-4.9,3.1-7.9-.4-1-1.1-1.9-2-2.5h0Z"/>
  <circle class="st8" cx="600.8" cy="272" r="3.1"/>
  <circle class="st8" cx="610.7" cy="272" r="3.1"/>
  <circle class="st6" cx="620.7" cy="272" r="3.1"/>
  <path class="st1" d="M735.9,171.2c-8,4.8-22.1,10.7-36.6,4.6l-9.4-4,18.8-21c-33.2-36.7-30.5-93.3,6.2-126.6,36.7-33.2,93.3-30.5,126.6,6.2s30.5,93.3-6.2,126.6c-27.1,24.6-66.4,30.2-99.4,14.2h0Z"/>
  <path class="st6" d="M735.9,172.3c-7.6,4.5-22.2,10.7-37.1,4.4l-10.6-4.5,19.1-21.4c-33.2-37.4-29.9-94.7,7.5-127.9s94.7-29.9,127.9,7.5c33,37.1,30,93.9-6.8,127.3h0c-27.2,24.8-66.8,30.6-100,14.6h0ZM840.7,31c-32.9-36.3-88.9-39-125.2-6.2s-39,88.9-6.2,125.2c0,0,0,0,0,0l.6.7-18.4,20.7,8.1,3.4c14.3,6.1,28.5-.2,35.7-4.5l.5-.3.5.2c44,21.4,97,3,118.4-41,15.8-32.5,10.2-71.4-14.1-98.2h0Z"/>
  <path class="st7" d="M850.7,90c0-42.7-32.6-78.4-75.2-82.1,2.4-.2,4.8-.3,7.3-.3,45.5,0,82.4,36.9,82.4,82.5,0,45.5-36.9,82.4-82.4,82.4-2.5,0-4.9-.1-7.3-.3,42.5-3.8,75.2-39.4,75.2-82.1Z"/>
  <path class="st9" d="M382,473.2H1C.4,473.2,0,472.7,0,472.2s.4-1,1-1h381c.6,0,1,.4,1,1s-.4,1-1,1Z"/>
  <path class="st0" d="M235.1,75.2c-.8-3.7-3.5-6.8-6.6-9.1-10.5-7.7-25-6.8-34.5,2.1-2.6,2.3-4.4,5.2-5.3,8.5-.9,3.4,0,6.9,2.2,9.5l.4.3c-.4-1.6.9-3.3,2.4-4,1.6-.6,3.2-.9,4.9-1.1,5.1-1,9.5-4.1,12.2-8.6,1.9,5.5,6.2,9.9,11.6,12.1,2.8,1.1,10.5,2.6,13.2,1.2,3.4-1.8.4-7.3-.4-11Z"/>
  <g>
    <rect class="st2" x="731.4" y="92.4" width=".4" height="1.2"/>
    <path class="st2" d="M731.8,118.9h-.4v-2.5h.4v2.5ZM731.8,113.8h-.4v-2.5h.4v2.5ZM731.8,108.8h-.4v-2.5h.4v2.5ZM731.8,103.7h-.4v-2.5h.4v2.5ZM731.8,98.7h-.4v-2.5h.4v2.5Z"/>
    <rect class="st2" x="731.4" y="121.4" width=".4" height="1.2"/>
    <rect class="st2" x="774.7" y="92.4" width=".4" height="1.2"/>
    <path class="st2" d="M775.1,118.9h-.4v-2.5h.4v2.5ZM775.1,113.8h-.4v-2.5h.4v2.5ZM775.1,108.8h-.4v-2.5h.4v2.5ZM775.1,103.7h-.4v-2.5h.4v2.5ZM775.1,98.7h-.4v-2.5h.4v2.5Z"/>
    <rect class="st2" x="774.7" y="121.4" width=".4" height="1.2"/>
    <rect class="st2" x="796.5" y="69.2" width=".4" height="1.2"/>
    <path class="st2" d="M796.9,119h-.4v-2.4h.4v2.4ZM796.9,114.1h-.4v-2.4h.4v2.4ZM796.9,109.3h-.4v-2.4h.4v2.4ZM796.9,104.4h-.4v-2.4h.4v2.4ZM796.9,99.5h-.4v-2.4h.4v2.4ZM796.9,94.7h-.4v-2.4h.4v2.4ZM796.9,89.8h-.4v-2.4h.4v2.4ZM796.9,85h-.4v-2.4h.4v2.4ZM796.9,80.1h-.4v-2.4h.4v2.4ZM796.9,75.3h-.4v-2.4h.4v2.4Z"/>
    <rect class="st2" x="796.5" y="121.4" width=".4" height="1.2"/>
    <rect class="st2" x="818.2" y="59.7" width=".4" height="1.2"/>
    <path class="st2" d="M818.6,119h-.4v-2.4h.4v2.4ZM818.6,114.1h-.4v-2.4h.4v2.4ZM818.6,109.3h-.4v-2.4h.4v2.4ZM818.6,104.5h-.4v-2.4h.4v2.4ZM818.6,99.6h-.4v-2.4h.4v2.4ZM818.6,94.8h-.4v-2.4h.4v2.4ZM818.6,89.9h-.4v-2.4h.4v2.4ZM818.6,85.1h-.4v-2.4h.4v2.4ZM818.6,80.3h-.4v-2.4h.4v2.4ZM818.6,75.4h-.4v-2.4h.4v2.4ZM818.6,70.6h-.4v-2.4h.4v2.4ZM818.6,65.7h-.4v-2.4h.4v2.4Z"/>
    <rect class="st2" x="818.2" y="121.4" width=".4" height="1.2"/>
    <rect class="st2" x="753.2" y="76.5" width=".4" height="1.2"/>
    <path class="st2" d="M753.5,119.1h-.4v-2.3h.4v2.3ZM753.5,114.5h-.4v-2.3h.4v2.3ZM753.5,109.9h-.4v-2.3h.4v2.3ZM753.5,105.3h-.4v-2.3h.4v2.3ZM753.5,100.7h-.4v-2.3h.4v2.3ZM753.5,96.1h-.4v-2.3h.4v2.3ZM753.5,91.5h-.4v-2.3h.4v2.3ZM753.5,86.9h-.4v-2.3h.4v2.3ZM753.5,82.3h-.4v-2.3h.4v2.3Z"/>
    <rect class="st2" x="753.2" y="121.4" width=".4" height="1.2"/>
    <path class="st3" d="M840.5,123.1h-130.9c-.2,0-.4-.2-.4-.4v-62.7c0-.2.2-.4.4-.4s.4.2.4.4v62.3h130.5c.2,0,.4.2.4.4s-.2.4-.4.4Z"/>
    <polygon class="st3" points="775.1 93 753.3 76.7 731.8 92.7 731.4 92.1 753.3 75.6 775 91.9 796.5 68.3 796.6 68.3 818.3 59.5 818.6 60.3 797 69 775.1 93"/>
    <circle class="st6" cx="731.6" cy="92.4" r="2.5"/>
    <circle class="st6" cx="753.3" cy="76.4" r="2.5"/>
    <circle class="st6" cx="775" cy="92.4" r="2.5"/>
    <circle class="st6" cx="796.7" cy="68.7" r="2.5"/>
    <circle class="st6" cx="818.5" cy="59.6" r="2.5"/>
  </g>
  <path class="st3" d="M435.9,162.1h-67.8c-1.1,0-2-.9-2-2v-22.9c0-1.1.9-2,2-2h67.8c1.1,0,2,.9,2,2v22.9c0,1.1-.9,2-2,2Z"/>
  <rect class="st1" x="376.6" y="141.3" width="18" height="2"/>
  <circle class="st6" cx="418.3" cy="142.5" r="1.2"/>
  <circle class="st6" cx="422.4" cy="142.5" r="1.2"/>
  <circle class="st6" cx="426.5" cy="142.5" r="1.2"/>
  <path class="st3" d="M435.9,191.1h-67.8c-1.1,0-2-.9-2-2v-22.9c0-1.1.9-2,2-2h67.8c1.1,0,2,.9,2,2v22.9c0,1.1-.9,2-2,2Z"/>
  <rect class="st1" x="376.6" y="170.3" width="18" height="2"/>
  <circle class="st6" cx="418.3" cy="171.5" r="1.2"/>
  <circle class="st6" cx="422.4" cy="171.5" r="1.2"/>
  <circle class="st6" cx="426.5" cy="171.5" r="1.2"/>
  <path class="st3" d="M435.9,220.1h-67.8c-1.1,0-2-.9-2-2v-22.9c0-1.1.9-2,2-2h67.8c1.1,0,2,.9,2,2v22.9c0,1.1-.9,2-2,2Z"/>
  <rect class="st1" x="376.6" y="199.3" width="18" height="2"/>
  <circle class="st6" cx="418.3" cy="200.5" r="1.2"/>
  <circle class="st6" cx="422.4" cy="200.5" r="1.2"/>
  <circle class="st6" cx="426.5" cy="200.5" r="1.2"/>
  <polygon class="st10" points="411.1 237.8 342.5 237.8 342.5 210.8 343.3 210.8 343.3 237 411.1 237 411.1 237.8"/>
  <polygon class="st10" points="385.4 116.4 454 116.4 454 143.5 453.2 143.5 453.2 117.3 385.4 117.3 385.4 116.4"/>
  <path class="st6" d="M401.8,236.9c2.9-3.2,7.6-2.2,10.8,0,4.1,2.9,5.2,8.1,5.8,12.8,1,7.9,1.3,19,10.2,22.3,4.1,1.5,8.8.3,12.3-2.2,3.8-2.7,6.2-6.8,7.8-11.1,1.9-5.2,3-10.8,4-16.2,1-5.6,1.6-11.2,1.9-16.9.3-5.5,0-11-.1-16.5-.2-4.3-.2-8.8,1.2-13,1.5-4.2,4.9-7.3,9.4-7.8,4.4-.4,8.9,1.4,12,4.4,7.6,7.1,7.9,18.8,9.6,28.3.9,5,2.2,10.1,4.9,14.5,2.2,3.6,5.4,6.6,9,8.8,7.2,4.5,16.5,5.8,24.5,2.7,7.8-3,14.2-9.6,16.9-17.6.7-2,1.1-4,1.3-6.1,0-1-1.4-1-1.5,0-.9,8.8-6.5,16.7-14.2,20.9-7.9,4.3-17.5,3.7-25.3-.7-3.8-2.2-7.1-5.3-9.4-9-2.8-4.6-4-9.9-4.9-15.1-1.6-9.4-2.3-20.2-9.3-27.4-5.5-5.6-15.5-7.8-21.4-1.6-6,6.4-4.2,16.8-4,24.7.3,11.7-.9,23.4-3.6,34.8-1.2,5-2.5,10.1-5.4,14.3-2.7,3.9-7,6.9-11.9,6.8-4.8,0-8.2-3.6-10-7.8-1.8-4.5-1.9-9.3-2.6-14-.6-4.3-1.6-9.1-4.9-12.3-2.5-2.5-6.3-4.1-9.8-3.5-1.7.3-3.2,1.1-4.4,2.4-.6.7.4,1.8,1.1,1.1h0Z"/>
  <circle class="st3" cx="401.7" cy="236.6" r="4.5" transform="translate(103.8 595.1) rotate(-80.8)"/>
  <circle class="st3" cx="431.7" cy="271.6" r="4.5"/>
  <circle class="st3" cx="465.7" cy="187.6" r="4.5"/>
  <circle class="st3" cx="515.7" cy="247.6" r="4.5"/>
  <circle class="st3" cx="544.7" cy="223.6" r="4.5"/>
</svg>