<?xml version="1.0" encoding="UTF-8"?>
<svg id="Layer_1" xmlns="http://www.w3.org/2000/svg" version="1.1" viewBox="0 0 974.7 683">
  <!-- Generator: Adobe Illustrator 29.0.1, SVG Export Plug-In . SVG Version: 2.1.0 Build 192)  -->
  <defs>
    <style>
      .st0 {
        fill: #2f2e41;
      }

      .st1 {
        fill: #fff;
      }

      .st2 {
        fill: #f0f0f0;
      }

      .st3 {
        fill: #e5e5e5;
      }

      .st4 {
        fill: #3f3d56;
      }

      .st5 {
        fill: #3c6973;
      }

      .st6 {
        fill: #e4e4e4;
      }
    </style>
  </defs>
  <path class="st2" d="M112.2,555.3c3.3-26.7,19.9-53,45.3-61.6-10,27.5-10,57.6,0,85,3.9,10.6,9.4,21.9,5.7,32.6-2.3,6.6-7.9,11.7-14.1,14.9-6.3,3.2-13.2,4.7-20.1,6.2l-1.3,1.1c-10.9-24.6-18.7-51.5-15.4-78.1Z"/>
  <path class="st1" d="M157.7,494.1c-14.8,16.6-24,37.4-26.3,59.6-.6,4.8-.4,9.6.5,14.3,1,4.6,3.3,8.7,6.5,12.1,2.9,3.2,6.3,6.2,8.4,10.1,2.1,4,2.4,8.8.8,13.1-1.9,5.3-5.5,9.6-9.2,13.7-4.1,4.6-8.5,9.2-10.2,15.3-.2.7-1.3.4-1.1-.4,3.1-10.5,13.3-16.5,18.1-26,2.3-4.4,3.2-9.6,1.1-14.2-1.9-4.1-5.3-7.1-8.3-10.4-3.2-3.3-5.5-7.3-6.8-11.6-1.2-4.6-1.5-9.4-1.1-14.2.8-10.7,3.4-21.3,7.5-31.2,4.6-11.4,11.2-21.9,19.4-31,.5-.6,1.3.3.8.9Z"/>
  <path class="st1" d="M131.7,546.6c-7.6-1.8-12.7-8.9-12.1-16.6,0-.8,1.2-.7,1.2,0-.6,7.2,4.2,13.8,11.3,15.5.7.2.4,1.3-.4,1.1h0Z"/>
  <path class="st1" d="M136.7,578.7c6.6-3.9,11.5-10.2,13.7-17.6.2-.7,1.3-.4,1.1.4-2.3,7.7-7.4,14.2-14.3,18.3-.7.4-1.2-.7-.5-1.1h0Z"/>
  <path class="st1" d="M143.3,514c2.7,1.3,5.9,1.1,8.5-.4.7-.4,1.2.7.5,1.1-2.9,1.7-6.4,1.9-9.4.5-.3-.1-.5-.4-.4-.7.1-.3.4-.5.7-.4h0Z"/>
  <path class="st2" d="M235,541.3c-.4.3-.8.5-1.2.8-5.4,3.5-10.4,7.5-15.1,11.8-.4.3-.7.7-1.1,1-11.3,10.6-20.4,23.2-27.1,37.1-2.6,5.5-4.9,11.3-6.6,17.2-2.5,8.1-4.5,17.1-9.3,23.8-.5.7-1,1.4-1.6,2h-43.8c0,0-.2,0-.3-.1h-1.8c0-.2.1-.5.2-.9,0-.2,0-.4.1-.5,0-.1,0-.2,0-.3,0,0,0,0,0-.1,0-.1,0-.2,0-.3.4-1.8.9-3.6,1.4-5.4t0,0c3.6-13.6,8.4-27.1,15-39.4.2-.4.4-.8.6-1.1,3-5.5,6.5-10.8,10.4-15.8,2.1-2.7,4.4-5.3,6.8-7.8,6.2-6.4,13.4-11.8,21.3-15.9,15.7-8.3,33.9-11.5,50.7-6.4.4.1.9.3,1.3.4Z"/>
  <path class="st1" d="M234.9,541.8c-21.8,4.3-41.7,15.4-56.9,31.7-3.3,3.4-6.1,7.4-8.2,11.7-1.9,4.3-2.6,9-2.1,13.6.4,4.3,1.3,8.7.7,13.1-.7,4.5-3.4,8.5-7.2,10.9-4.7,3.1-10.2,4.4-15.6,5.4-6,1.2-12.3,2.3-17.4,6-.6.5-1.3-.5-.7-1,8.8-6.6,20.5-5.2,30.1-9.8,4.5-2.2,8.3-5.7,9.4-10.7,1-4.4,0-8.9-.4-13.3-.6-4.5,0-9.1,1.6-13.4,1.9-4.4,4.5-8.5,7.7-12,7.1-8.1,15.5-14.9,24.8-20.4,10.6-6.3,22.1-10.7,34.2-13.1.7-.1.8,1,0,1.2h0Z"/>
  <path class="st1" d="M182.6,568c-4.9-6-4.8-14.7.4-20.6.5-.6,1.4.2.9.8-4.8,5.4-4.9,13.6-.3,19.1.5.6-.5,1.3-1,.7h0Z"/>
  <path class="st1" d="M167.3,596.7c7.7.8,15.3-1.3,21.5-5.8.6-.5,1.3.5.7,1-6.4,4.8-14.5,6.9-22.4,6-.8,0-.5-1.2.2-1.2Z"/>
  <path class="st1" d="M211.4,549.1c1.4,2.7,4.1,4.5,7.1,4.8.8,0,.5,1.2-.2,1.2-3.3-.4-6.3-2.3-7.8-5.3-.2-.3-.1-.6.1-.8.3-.2.6-.1.8.1h0Z"/>
  <polygon class="st6" points="877.8 354 736.8 354 736.8 352 875.8 352 875.8 259 877.8 259 877.8 354"/>
  <polygon class="st6" points="420.8 393 418.8 393 418.8 298 559.8 298 559.8 300 420.8 300 420.8 393"/>
  <polygon class="st6" points="626.8 181 485.8 181 485.8 86 487.8 86 487.8 179 626.8 179 626.8 181"/>
  <path id="a6516cba-8069-4f45-b641-c1f90dba684f-365" class="st4" d="M457.7,46c-1.6,0-2.9,1.3-2.9,2.9,0,1.6,1.3,2.8,2.9,2.9h57.9c1.6,0,2.9-1.3,2.9-2.9,0-1.6-1.3-2.8-2.9-2.9h-57.9Z"/>
  <path id="a2f9acfe-22a3-4ed4-9cf2-7606b61419d8-366" class="st4" d="M457.7,62.8c-1.6,0-2.9,1.3-2.9,2.9s1.3,2.9,2.9,2.9h57.9c1.6,0,2.9-1.3,2.9-2.9,0-1.6-1.3-2.8-2.9-2.9h-57.9Z"/>
  <path id="ec202844-6974-4039-9753-1a4628c4214d-367" class="st0" d="M906.1,246.2c1.6,0,2.9-1.3,2.8-2.9,0-1.6-1.3-2.8-2.8-2.8h-57.9c-1.6,0-2.9,1.3-2.9,2.8,0,1.6,1.3,2.9,2.8,2.9h57.9Z"/>
  <path id="e7621fd2-cc0e-4ef1-8ca7-425f7b24c113-368" class="st0" d="M906.1,229.4c1.6,0,2.9-1.3,2.8-2.9,0-1.6-1.3-2.8-2.8-2.8h-57.9c-1.6,0-2.9,1.3-2.9,2.8,0,1.6,1.3,2.9,2.8,2.9h57.9Z"/>
  <path class="st6" d="M660.8,382c-59.1,0-107-47.9-107-107s47.9-107,107-107,107,47.9,107,107h0c0,59.1-47.9,106.9-107,107ZM660.8,170c-58,0-105,47-105,105s47,105,105,105,105-47,105-105h0c0-58-47-104.9-105-105Z"/>
  <circle class="st5" cx="617.8" cy="181" r="12"/>
  <circle class="st5" cx="556.8" cy="300" r="12"/>
  <circle class="st5" cx="732.8" cy="354" r="12"/>
  <path id="bc1eae62-5e4d-4f76-aab9-42af61f239ce-369" class="st0" d="M390.4,405.8c-1.6,0-2.9,1.3-2.9,2.9s1.3,2.9,2.9,2.9h57.9c1.6,0,2.9-1.3,2.9-2.9s-1.3-2.9-2.9-2.9h-57.9Z"/>
  <path id="ace38b77-7629-49a8-ba58-07c8d3bba8b5-370" class="st0" d="M390.4,422.6c-1.6,0-2.9,1.3-2.9,2.9s1.3,2.9,2.9,2.9h57.9c1.6,0,2.9-1.3,2.9-2.9s-1.3-2.9-2.9-2.9h-57.9Z"/>
  <path class="st5" d="M247.6,636.4h-14.6c-3.8,0-6.9-3.1-6.9-6.9v-121.3c0-3.8,3.1-6.9,6.9-6.9h14.6c3.8,0,6.9,3.1,6.9,6.9v121.3c0,3.8-3.1,6.9-6.9,6.9Z"/>
  <path class="st5" d="M286.2,636.4h-14.6c-3.8,0-6.9-3.1-6.9-6.9v-121.3c0-3.8,3.1-6.9,6.9-6.9h14.6c3.8,0,6.9,3.1,6.9,6.9v121.3c0,3.8-3.1,6.9-6.9,6.9Z"/>
  <circle class="st5" cx="261" cy="324.9" r="50.3"/>
  <path class="st0" d="M278.1,544.3h-36.2c-23.6,0-42.7-18.9-42.8-42.5,0-7.6,2-15.1,5.8-21.6l50.6-87.6c1.8-3.1,5.7-4.1,8.8-2.3,1,.6,1.8,1.4,2.3,2.3l49.6,85.9c12.1,21,4.9,47.9-16.1,60-6.7,3.9-14.3,5.9-22,5.9Z"/>
  <path class="st0" d="M272.9,346c3.3,0,7.3-.2,10.4-2.5,1.9-1.4,3-3.6,3.2-6,.1-1.7-.6-3.3-1.8-4.4-1.6-1.4-4-1.7-6.6-.9l2.7-19.5-2-.3-3.1,22.9,1.6-.7c1.9-.9,4.5-1.3,6.1,0,.8.7,1.2,1.8,1.1,2.9,0,1.8-1,3.4-2.3,4.5-2.4,1.8-5.7,2-9.3,2.1v2Z"/>
  <rect class="st0" x="290.4" y="314.4" width="10.6" height="2"/>
  <rect class="st0" x="256.9" y="314.4" width="10.6" height="2"/>
  <path class="st5" d="M249.2,533.1c-.4-.9-.6-1.8-.7-2.8l-2.5-90.3c-.2-7.8,6-14.3,13.9-14.5,7.8-.2,14.3,6,14.5,13.9l2.5,90.3c0,3.8-2.9,7-6.8,7.1l-14.6.3c-2.7,0-5.2-1.5-6.4-3.9Z"/>
  <path class="st0" d="M256.4,287.7c6.1,8,15.8,13.4,26.1,12.1,9.8-1.2,17.8-8,19.8-17.8,1.8-9.3-1.1-19-7.7-25.8-6.9-7.3-16.8-11.2-26.6-12.5-18.5-2.5-37.6,4-51.6,16.2-7,6.1-12.7,13.6-16.5,22.1-3.7,8.4-5.4,17.5-5.1,26.7.5,18.1,8.5,36.2,22.2,48.2,1.7,1.5,3.5,2.9,5.3,4.2,1.6,1.1,3-1.5,1.5-2.6-14-9.8-23-25.8-25.4-42.7-2.6-17.2,2.5-34.6,13.9-47.7,11.3-12.9,27.9-21.2,45.1-22,17.3-.8,38.9,7,42.2,26.2,1.5,8.6-1.8,17.7-9.7,22-8.5,4.6-18.9,2.7-26.1-3.3-1.8-1.5-3.4-3.1-4.8-4.9-1.1-1.5-3.7,0-2.6,1.5h0Z"/>
  <path class="st4" d="M447.7,637H66.7c-.6,0-1-.4-1-1s.4-1,1-1h381c.6,0,1,.4,1,1s-.4,1-1,1Z"/>
  <g>
    <rect class="st3" x="616.3" y="277.3" width=".4" height="1.2"/>
    <path class="st3" d="M616.7,304.2h-.4v-2.6h.4v2.6ZM616.7,299.1h-.4v-2.6h.4v2.6ZM616.7,293.9h-.4v-2.6h.4v2.6ZM616.7,288.8h-.4v-2.6h.4v2.6ZM616.7,283.6h-.4v-2.6h.4v2.6Z"/>
    <rect class="st3" x="616.3" y="306.8" width=".4" height="1.2"/>
    <rect class="st3" x="660.5" y="277.3" width=".4" height="1.2"/>
    <path class="st3" d="M660.9,304.2h-.4v-2.6h.4v2.6ZM660.9,299.1h-.4v-2.6h.4v2.6ZM660.9,293.9h-.4v-2.6h.4v2.6ZM660.9,288.8h-.4v-2.6h.4v2.6ZM660.9,283.6h-.4v-2.6h.4v2.6Z"/>
    <rect class="st3" x="660.5" y="306.8" width=".4" height="1.2"/>
    <rect class="st3" x="682.7" y="253.6" width=".4" height="1.2"/>
    <path class="st3" d="M683.1,304.3h-.4v-2.5h.4v2.5ZM683.1,299.4h-.4v-2.5h.4v2.5ZM683.1,294.4h-.4v-2.5h.4v2.5ZM683.1,289.5h-.4v-2.5h.4v2.5ZM683.1,284.5h-.4v-2.5h.4v2.5ZM683.1,279.6h-.4v-2.5h.4v2.5ZM683.1,274.6h-.4v-2.5h.4v2.5ZM683.1,269.7h-.4v-2.5h.4v2.5ZM683.1,264.7h-.4v-2.5h.4v2.5ZM683.1,259.8h-.4v-2.5h.4v2.5Z"/>
    <rect class="st3" x="682.7" y="306.8" width=".4" height="1.2"/>
    <rect class="st3" x="704.7" y="244" width=".4" height="1.2"/>
    <path class="st3" d="M705.1,304.4h-.4v-2.5h.4v2.5ZM705.1,299.4h-.4v-2.5h.4v2.5ZM705.1,294.5h-.4v-2.5h.4v2.5ZM705.1,289.6h-.4v-2.5h.4v2.5ZM705.1,284.6h-.4v-2.5h.4v2.5ZM705.1,279.7h-.4v-2.5h.4v2.5ZM705.1,274.8h-.4v-2.5h.4v2.5ZM705.1,269.8h-.4v-2.5h.4v2.5ZM705.1,264.9h-.4v-2.5h.4v2.5ZM705.1,260h-.4v-2.5h.4v2.5ZM705.1,255h-.4v-2.5h.4v2.5ZM705.1,250.1h-.4v-2.5h.4v2.5Z"/>
    <rect class="st3" x="704.7" y="306.8" width=".4" height="1.2"/>
    <rect class="st3" x="638.5" y="261.1" width=".4" height="1.2"/>
    <path class="st3" d="M638.9,304.5h-.4v-2.3h.4v2.3ZM638.9,299.8h-.4v-2.3h.4v2.3ZM638.9,295.1h-.4v-2.3h.4v2.3ZM638.9,290.4h-.4v-2.3h.4v2.3ZM638.9,285.7h-.4v-2.3h.4v2.3ZM638.9,281h-.4v-2.3h.4v2.3ZM638.9,276.4h-.4v-2.3h.4v2.3ZM638.9,271.7h-.4v-2.3h.4v2.3ZM638.9,267h-.4v-2.3h.4v2.3Z"/>
    <rect class="st3" x="638.5" y="306.8" width=".4" height="1.2"/>
    <path class="st4" d="M727.5,308.6h-133.4c-.2,0-.4-.2-.4-.4v-63.9c0-.2.2-.4.4-.4s.4.2.4.4v63.5h133c.2,0,.4.2.4.4s-.2.4-.4.4Z"/>
    <polygon class="st4" points="660.8 277.8 638.7 261.2 616.8 277.6 616.3 277 638.7 260.2 660.7 276.7 682.7 252.7 682.8 252.7 704.9 243.8 705.2 244.5 683.2 253.4 660.8 277.8"/>
    <circle class="st5" cx="616.5" cy="277.3" r="2.5"/>
    <circle class="st5" cx="638.7" cy="261" r="2.5"/>
    <circle class="st5" cx="660.8" cy="277.3" r="2.5"/>
    <circle class="st5" cx="682.9" cy="253.1" r="2.5"/>
    <circle class="st5" cx="705" cy="243.9" r="2.5"/>
  </g>
</svg>