<?xml version="1.0" encoding="UTF-8"?>
<svg id="Layer_1" xmlns="http://www.w3.org/2000/svg" version="1.1" viewBox="0 0 1107 776.2">
  <!-- Generator: Adobe Illustrator 29.0.1, SVG Export Plug-In . SVG Version: 2.1.0 Build 192)  -->
  <defs>
    <style>
      .st0 {
        fill: #2f2e41;
      }

      .st1 {
        fill: #fff;
      }

      .st2 {
        fill: #ff6584;
      }

      .st3 {
        fill: #3f3d56;
      }

      .st4 {
        fill: #f2f2f2;
      }

      .st5 {
        fill: #ffb8b8;
      }

      .st6 {
        fill: #3c6973;
      }

      .st7 {
        isolation: isolate;
        opacity: .2;
      }

      .st8 {
        fill: #a0616a;
      }

      .st9 {
        fill: #ccc;
      }

      .st10 {
        fill: #e6e6e6;
      }
    </style>
  </defs>
  <path class="st4" d="M868.7,476.8H227.9c-9.1,0-16.5-7.4-16.5-16.5V65.2c0-6.7,5.4-12.1,12.1-12.1h649.5c6.8,0,12.3,5.5,12.3,12.3v394.9c0,9.1-7.4,16.5-16.5,16.5Z"/>
  <path class="st1" d="M845.3,453.4H248.1c-8.8,0-15.9-6.7-15.9-14.9V94.5c0-6.1,5.3-11,11.8-11h605.3c6.6,0,12,5,12,11.2v343.9c0,8.2-7.1,14.9-15.9,14.9Z"/>
  <path class="st9" d="M885,64.2H211.1v-8.4c0-9.1,7.4-16.5,16.6-16.5h640.7c9.1,0,16.5,7.4,16.6,16.5v8.4Z"/>
  <circle class="st1" cx="241.2" cy="51.8" r="4.3"/>
  <circle class="st1" cx="257.5" cy="51.8" r="4.3"/>
  <circle class="st1" cx="273.7" cy="51.8" r="4.3"/>
  <path class="st9" d="M779.6,395.7h-462.8c-9.7,0-17.5-7.8-17.5-17.5v-223.2c0-7.2,5.9-13.1,13.1-13.1h471.5c7.3,0,13.3,6,13.3,13.3v222.9c0,9.7-7.8,17.5-17.5,17.5ZM312.3,144c-6.1,0-11.1,5-11.1,11.1v223.2c0,8.6,6.9,15.5,15.5,15.5h462.8c8.6,0,15.5-6.9,15.5-15.5v-222.9c0-6.2-5.1-11.3-11.3-11.3h-471.5Z"/>
  <path class="st4" d="M332.7,378.2h430.8c8.8,0,16-7.2,16-16v-186.5c0-8.8-7.2-16-16-16h-430.8c-8.8,0-16,7.2-16,16v186.5c0,8.8,7.2,16,16,16Z"/>
  <circle class="st9" cx="381.7" cy="205" r="9"/>
  <circle class="st9" cx="381.7" cy="239" r="9"/>
  <circle class="st9" cx="381.7" cy="273" r="9"/>
  <circle class="st9" cx="381.7" cy="307" r="9"/>
  <path class="st9" d="M722.7,206h-296c-.6,0-1-.4-1-1s.4-1,1-1h296c.6,0,1,.4,1,1s-.4,1-1,1Z"/>
  <path class="st9" d="M722.7,240h-296c-.6,0-1-.4-1-1s.4-1,1-1h296c.6,0,1,.4,1,1s-.4,1-1,1Z"/>
  <path class="st9" d="M722.7,274h-296c-.6,0-1-.4-1-1s.4-1,1-1h296c.6,0,1,.4,1,1s-.4,1-1,1Z"/>
  <path class="st9" d="M722.7,308h-296c-.6,0-1-.4-1-1s.4-1,1-1h296c.6,0,1,.4,1,1s-.4,1-1,1Z"/>
  <path class="st6" d="M482.7,342h-29c-2.8,0-5-2.2-5-5v-27c0-2.8,2.2-5,5-5h29c2.8,0,5,2.2,5,5v27c0,2.8-2.2,5-5,5Z"/>
  <path class="st6" d="M547.7,342h-29c-2.8,0-5-2.2-5-5v-61c0-2.8,2.2-5,5-5h29c2.8,0,5,2.2,5,5v61c0,2.8-2.2,5-5,5Z"/>
  <path class="st6" d="M613.7,342h-29c-2.8,0-5-2.2-5-5v-95c0-2.8,2.2-5,5-5h29c2.8,0,5,2.2,5,5v95c0,2.8-2.2,5-5,5Z"/>
  <path class="st6" d="M681.7,342h-29c-2.8,0-5-2.2-5-5v-128c0-2.8,2.2-5,5-5h29c2.8,0,5,2.2,5,5v128c0,2.8-2.2,5-5,5Z"/>
  <path class="st3" d="M722.7,342h-296c-.6,0-1-.4-1-1s.4-1,1-1h296c.6,0,1,.4,1,1s-.4,1-1,1Z"/>
  <path class="st5" d="M852.7,528.5c3.1-4.6,9.3-5.9,13.9-2.8.5.3,1,.7,1.4,1.1l31.8-16.4-2,18.5-29.9,12.7c-4.1,3.8-10.5,3.5-14.3-.6-3.2-3.4-3.6-8.6-1-12.5Z"/>
  <path class="st3" d="M880,535.4c-.7-.6-1.3-1.3-1.5-2.2l-2.5-8.2c-.6-1.8,0-3.8,1.6-4.9l25.7-19.4,27.9-51.7c4.9-6.3,14-7.5,20.3-2.6,6.3,4.9,7.5,14,2.6,20.3h0l-15.9,33.5c-4.8,10.2-13.1,18.2-23.5,22.7l-30.2,13.1c-1.2.5-2.5.5-3.7,0-.3-.1-.6-.3-.9-.5Z"/>
  <circle class="st5" cx="954.8" cy="402.8" r="24.6"/>
  <polygon class="st5" points="944.8 725 932.6 725 926.7 677.7 944.8 677.7 944.8 725"/>
  <path class="st0" d="M923.8,721.5h23.6v14.9h-38.5c0-8.2,6.7-14.9,14.9-14.9Z"/>
  <polygon class="st5" points="984.8 725 972.6 725 966.7 677.7 984.8 677.7 984.8 725"/>
  <path class="st0" d="M963.8,721.5h23.6v14.9h-38.5c0-8.2,6.7-14.9,14.9-14.9h0Z"/>
  <path class="st0" d="M985.7,713h-14.4c-2,0-3.8-1.4-4.3-3.3l-20.7-76.7c0-.3-.3-.4-.6-.4-.2,0-.4.3-.4.5l4.2,72.7c.1,2.5-1.8,4.6-4.2,4.8-.2,0-.4,0-.6,0l-16.1-1.3c-2.1-.2-3.8-1.8-4.1-4l-14.7-152.7,5.7,3.4,53.3-9.1,21.5,161c.3,2.5-1.4,4.7-3.9,5.1-.2,0-.4,0-.6,0Z"/>
  <path class="st3" d="M927.5,568.7c-5.9,0-11.6-1.7-16.7-4.7-1.6-.9-2.4-2.8-2.1-4.6,1.9-11.5,11.7-70.4,20.6-102.5,3.6-13.1,11.7-20.1,23.9-20.9,17.9-1.2,33.7,12.8,35.4,31.2,2.9,32.4-8.9,78.6-14.2,96.9-.7,2.4-3.2,3.8-5.6,3.1-.6-.2-1.1-.4-1.5-.8l-10.7-8.3c-1.4-1-3.3-1-4.5.2-9,8-17.5,10.5-24.6,10.5Z"/>
  <polygon class="st7" points="962.8 483 971.8 521 958.8 553 967.8 522 962.8 483"/>
  <path class="st0" d="M968.8,423c2.2,0,4.4-.4,6.4-1.2.9-.3,1.8-.6,2.7-1,7.9-3,13.1-11.4,13.3-19.9s-4.2-16.6-10.7-22.1-14.9-8.2-23.3-8.8c-9.1-.7-19.3,1.6-24.4,9.2-1.3,2-2.3,4.5-1.5,6.9.2.7.7,1.4,1.2,1.9,2.3,2,4.5.5,6.8.4,3.2-.2,6,2.4,7,5.4s.6,6.3-.3,9.4c-.6,1.8-1,3.8-1.2,5.7-.1,2,.8,3.9,2.4,5.1,2,1.2,4.6.5,6.6-.7s3.7-2.9,5.8-3.7,5-.7,6.3,1.3c.4.7.7,1.5.8,2.3,1.1,5.1.9,4.8,2,9.9h0Z"/>
  <path class="st10" d="M930.7,690.7l-153.8-53.6c-5.5-1.9-8.4-7.9-6.5-13.4l40-114.8c1.4-4,5.8-6.2,9.8-4.8l159,55.4c4.1,1.4,6.3,5.9,4.8,10l-39.9,114.6c-1.9,5.5-7.9,8.4-13.4,6.5Z"/>
  <path class="st1" d="M790,630.5l134.5,46.8c5.3,1.9,11.2-1,13-6.3l32.3-92.7c1.9-5.3-1-11.2-6.3-13h0l-134.5-46.8c-5.3-1.9-11.2,1-13,6.3l-32.3,92.7c-1.9,5.3,1,11.2,6.3,13Z"/>
  <path class="st6" d="M823.8,565.4l-6.7-2.3c-.8-.3-1.1-1.1-.9-1.8l2.3-6.7c.3-.8,1.1-1.1,1.8-.9l6.7,2.3c.8.3,1.1,1.1.9,1.8l-2.3,6.7c-.3.8-1.1,1.1-1.8.9Z"/>
  <path class="st3" d="M817.8,582.7l-6.7-2.3c-.8-.3-1.1-1.1-.9-1.8l2.3-6.7c.3-.8,1.1-1.1,1.8-.9l6.7,2.3c.8.3,1.1,1.1.9,1.8l-2.3,6.7c-.3.8-1.1,1.1-1.8.9Z"/>
  <path class="st9" d="M811.8,599.9l-6.7-2.3c-.8-.3-1.1-1.1-.9-1.8l2.3-6.7c.3-.8,1.1-1.1,1.8-.9l6.7,2.3c.8.3,1.1,1.1.9,1.8l-2.3,6.7c-.3.8-1.1,1.1-1.8.9Z"/>
  <path class="st9" d="M868.6,577.3l-32.1-11.2c-.8-.3-1.1-1.1-.9-1.8.3-.8,1.1-1.1,1.8-.9l32.1,11.2c.8.3,1.1,1.1.9,1.8-.3.8-1.1,1.1-1.8.9Z"/>
  <path class="st9" d="M862.6,594.5l-32.1-11.2c-.8-.3-1.1-1.1-.9-1.8s1.1-1.1,1.8-.9h0l32.1,11.2c.8.3,1.1,1.1.9,1.8s-1.1,1.1-1.8.9Z"/>
  <path class="st9" d="M856.6,611.8l-32.1-11.2c-.8-.3-1.1-1.1-.9-1.8s1.1-1.1,1.8-.9h0l32.1,11.2c.8.3,1.1,1.1.9,1.8s-1.1,1.1-1.8.9Z"/>
  <path class="st6" d="M942,621.1c.2-.6.5-1.1.7-1.7,5.5-15.8-2.8-33-18.6-38.5l-10.5,30.3,28.5,9.9Z"/>
  <path class="st3" d="M910.4,613.1l10.5-30.3c-15.8-5.5-33,2.8-38.5,18.6s2.8,33,18.6,38.5c15.1,5.3,31.7-2.1,37.8-16.9l-28.5-9.9Z"/>
  <path class="st5" d="M948.1,569.6c-.5-5.5,3.7-10.4,9.2-10.8.6,0,1.2,0,1.8,0l14.9-32.5,9.8,15.7-15.6,28.4c-.9,5.5-6.1,9.3-11.6,8.4-4.6-.8-8.1-4.6-8.5-9.2h0Z"/>
  <path class="st3" d="M973.9,558.2c-.9,0-1.8-.3-2.6-.8l-7-4.9c-1.6-1.1-2.3-3-1.8-4.9l8.3-31.2-10-57.9c0-8,6.4-14.5,14.4-14.6s14.5,6.4,14.6,14.4l8.2,36.1c2.5,11,.9,22.5-4.5,32.3l-15.7,28.9c-.6,1.1-1.7,1.9-2.9,2.2-.3,0-.7.1-1,.1Z"/>
  <path class="st9" d="M1050,736.9h-190c-.6,0-1-.4-1-1s.4-1,1-1h190c.6,0,1,.4,1,1s-.4,1-1,1Z"/>
  <polygon class="st8" points="546.5 724.5 558.8 724.5 564.6 677.2 546.5 677.2 546.5 724.5"/>
  <path class="st0" d="M543.4,720.5h24.1s0,0,0,0c8.5,0,15.4,6.9,15.4,15.4h0v.5h-39.5s0-15.9,0-15.9Z"/>
  <polygon class="st8" points="497.5 724.5 509.8 724.5 515.6 677.2 497.5 677.2 497.5 724.5"/>
  <path class="st0" d="M494.4,720.5h24.1s0,0,0,0c8.5,0,15.4,6.9,15.4,15.4h0v.5h-39.5s0-15.9,0-15.9Z"/>
  <circle class="st8" cx="549" cy="372.6" r="24.6" transform="translate(93.3 854.8) rotate(-80.8)"/>
  <path class="st0" d="M565.5,714.3h-22.8c-2.5,0-4.5-2-4.5-4.5,0,0,0,0,0,0l1.3-108c0-.8-.7-1.5-1.5-1.5-.8,0-1.4.6-1.5,1.3l-13.2,108.8c-.3,2.3-2.2,4-4.5,4h-23c-2.5,0-4.5-2-4.5-4.5,0-.1,0-.2,0-.4l15.2-194.1h.4s72.6-7.9,72.6-7.9l-9.6,202.5c-.1,2.4-2.1,4.3-4.5,4.3Z"/>
  <path class="st3" d="M507.5,527.3c-2.4,0-4.4-1.9-4.5-4.4-.4-12.3-1.1-54.7,6.8-85.9,4.4-17.5,19.8-30,37.8-30.8h0c17.7-1,34.1,9.5,40.6,26,13.3,33.7,25.8,75.2,10.2,81.8-20.5,8.5-74.5,12.3-90.6,13.3,0,0-.2,0-.3,0Z"/>
  <path class="st8" d="M601.3,347.7c.4.4.8.8,1.2,1.1l-2.6,49.5-10.7,5.5,6.2,17.3,19.9-7.9c3.3-1.3,5.4-4.6,5-8.2l-5.2-56.2c4.6-3.5,5.6-10,2.1-14.7-3.5-4.6-10-5.6-14.7-2.1-4.6,3.5-5.6,10-2.1,14.7.3.3.5.7.8,1h0Z"/>
  <path class="st3" d="M600.2,400.2l7.5,21.4c.8,2.3-.4,4.9-2.8,5.7-.2,0-.4.1-.6.2l-22.2,4.3c-6.5,2.3-13.6-1.2-15.9-7.7-2.2-6.5,1.2-13.6,7.7-15.9l20-10.5c2.2-1.2,4.9-.3,6.1,1.9.1.2.2.4.3.6h0Z"/>
  <path class="st8" d="M495,347.7c-.4.4-.8.8-1.2,1.1l2.6,49.5,10.7,5.5-6.2,17.3-19.9-7.9c-3.3-1.3-5.4-4.6-5-8.2l5.2-56.2c-4.6-3.5-5.6-10-2.1-14.7,3.5-4.6,10-5.6,14.7-2.1,4.6,3.5,5.6,10,2.1,14.7-.3.3-.5.7-.8,1h0Z"/>
  <path class="st3" d="M498.7,397.5c1.2-.5,2.6-.4,3.7.2l20,10.5c6.5,2.3,9.9,9.4,7.6,15.9-2.3,6.5-9.4,9.9-15.9,7.7l-22.2-4.3c-2.4-.5-4-2.8-3.6-5.3,0-.2,0-.4.2-.6l7.5-21.4c.4-1.2,1.4-2.2,2.6-2.7Z"/>
  <path class="st0" d="M558.5,376.8c-.3-6.4,3.3-12.4,9-15.2,7.5-3.9,12.2-12.1,10.1-19.6-2.6-9.6-15.7-15.8-26.3-12.5-2.9,1-5.6,2.3-8.3,3.8l-6.9,3.7c-3,1.5-5.8,3.2-8.5,5-8.3,6.1-12.6,16.3-11.3,26.5,1.4,9.8,7.8,18.7,16.5,24.9,3.3,2.5,7.2,4.2,11.3,5,4.2.7,8.9,0,11.9-2.7,4.8-4.1,4.3-10.9,2.7-16.6-.2-.8-.3-1.6-.4-2.4Z"/>
  <path class="st9" d="M642,736.9h-190c-.6,0-1-.4-1-1s.4-1,1-1h190c.6,0,1,.4,1,1s-.4,1-1,1Z"/>
  <path class="st10" d="M331.9,554.5l-156.8,64.3c-5.6,2.3-12-.4-14.3-6l-48-117c-1.7-4.1.3-8.8,4.4-10.5l162.1-66.5c4.2-1.7,9,.3,10.7,4.5l47.9,116.9c2.3,5.6-.4,12-6,14.3Z"/>
  <path class="st1" d="M180.8,604.6l137.1-56.2c5.4-2.2,8-8.4,5.8-13.9h0l-38.8-94.5c-2.2-5.4-8.4-8-13.9-5.8h0l-137.1,56.2c-5.4,2.2-8,8.4-5.8,13.9h0s38.8,94.5,38.8,94.5c2.2,5.4,8.4,8,13.9,5.8Z"/>
  <rect class="st10" x="282.2" y="466.2" width="2.2" height=".4" transform="translate(-155.8 142.4) rotate(-22.3)"/>
  <path class="st10" d="M278.2,468.7l-4.1,1.7v-.3c-.1,0,3.9-1.7,3.9-1.7v.3ZM270.1,472l-4.1,1.7v-.3c-.1,0,3.9-1.7,3.9-1.7v.3ZM262,475.3l-4.1,1.7v-.3c-.1,0,3.9-1.7,3.9-1.7v.3ZM253.8,478.7l-4.1,1.7v-.3c-.1,0,3.9-1.7,3.9-1.7v.3ZM245.7,482l-4.1,1.7v-.3c-.1,0,3.9-1.7,3.9-1.7v.3ZM237.5,485.4l-4.1,1.7v-.3c-.1,0,3.9-1.7,3.9-1.7v.3ZM229.4,488.7l-4.1,1.7v-.3c-.1,0,3.9-1.7,3.9-1.7v.3ZM221.2,492l-4.1,1.7v-.3c-.1,0,3.9-1.7,3.9-1.7v.3ZM213.1,495.4l-4.1,1.7v-.3c-.1,0,3.9-1.7,3.9-1.7v.3ZM205,498.7l-4.1,1.7v-.3c-.1,0,3.9-1.7,3.9-1.7v.3ZM196.8,502.1l-4.1,1.7v-.3c-.1,0,3.9-1.7,3.9-1.7v.3ZM188.7,505.4l-4.1,1.7v-.3c-.1,0,3.9-1.7,3.9-1.7v.3ZM180.5,508.7l-4.1,1.7v-.3c-.1,0,3.9-1.7,3.9-1.7v.3ZM172.4,512.1l-4.1,1.7v-.3c-.1,0,3.9-1.7,3.9-1.7v.3ZM164.2,515.4l-4.1,1.7v-.3c-.1,0,3.9-1.7,3.9-1.7v.3ZM156.1,518.8l-4.1,1.7v-.3c-.1,0,3.9-1.7,3.9-1.7v.3Z"/>
  <rect class="st10" x="145.8" y="522.2" width="2.2" height=".4" transform="translate(-187.3 94.8) rotate(-22.3)"/>
  <rect class="st10" x="228.8" y="524.6" width="2.2" height=".4" transform="translate(-182 126.5) rotate(-22.3)"/>
  <path class="st10" d="M224.9,527l-4,1.6v-.3c-.1,0,3.9-1.6,3.9-1.6v.3ZM216.9,530.3l-4,1.6v-.3c-.1,0,3.9-1.6,3.9-1.6v.3ZM208.9,533.6l-4,1.6v-.3c-.1,0,3.9-1.6,3.9-1.6v.3ZM200.9,536.9l-4,1.6v-.3c-.1,0,3.9-1.6,3.9-1.6v.3ZM192.9,540.2l-4,1.6v-.3c-.1,0,3.9-1.6,3.9-1.6v.3ZM184.8,543.5l-4,1.6v-.3c-.1,0,3.9-1.6,3.9-1.6v.3ZM176.8,546.8l-4,1.6v-.3c-.1,0,3.9-1.6,3.9-1.6v.3ZM168.8,550.1l-4,1.6v-.3c-.1,0,3.9-1.6,3.9-1.6v.3Z"/>
  <rect class="st10" x="158.6" y="553.4" width="2.2" height=".4" transform="translate(-198.2 102) rotate(-22.3)"/>
  <rect class="st10" x="195.6" y="555.5" width="2.2" height=".4" transform="translate(-196.2 116.2) rotate(-22.3)"/>
  <path class="st10" d="M191.6,558l-4.1,1.7v-.3c-.1,0,4-1.7,4-1.7v.3ZM183.3,561.4l-4.1,1.7v-.3c-.1,0,4-1.7,4-1.7v.3ZM175.1,564.7l-4.1,1.7v-.3c-.1,0,4-1.7,4-1.7v.3Z"/>
  <rect class="st10" x="164.7" y="568.2" width="2.2" height=".4" transform="translate(-203.3 105.4) rotate(-22.3)"/>
  <rect class="st10" x="205.9" y="580.7" width="2.2" height=".4" transform="translate(-205 122) rotate(-22.3)"/>
  <path class="st10" d="M201.9,583.2l-4.1,1.7v-.3c-.1,0,4-1.7,4-1.7v.3ZM193.7,586.6l-4.1,1.7v-.3c-.1,0,4-1.7,4-1.7v.3ZM185.4,590l-4.1,1.7v-.3c-.1,0,4-1.7,4-1.7v.3Z"/>
  <rect class="st10" x="175" y="593.4" width="2.2" height=".4" transform="translate(-212.1 111.3) rotate(-22.3)"/>
  <path class="st6" d="M186.6,589.8l116.2-47.7c5.9-2.4,8.7-9.1,6.3-15l-23.5-57.2h-.2c0,.1-28.5,68.3-28.5,68.3l-21.1-8.8c-.8-.3-1.7-.3-2.4.2-.6.3-1,.8-1.2,1.4l-14.9,35.7-15.5-6.5c-1.4-.6-3,0-3.6,1.5h0c0,.2-9.6,23.6-11.4,28.1Z"/>
  <path class="st3" d="M186.3,590.3h-.3c0-.1,12-28.7,12-28.7.7-1.6,2.5-2.3,4-1.7l15.2,6.3,14.9-35.5c.7-1.6,2.5-2.3,4-1.7l20.8,8.7,28.7-68.5h.3c0,.1-28.8,69-28.8,69l-21.2-8.9c-1.4-.6-3,0-3.6,1.5h0s-15,35.9-15,35.9l-15.5-6.5c-1.4-.6-3,0-3.6,1.5l-12,28.6Z"/>
  <circle class="st3" cx="197.7" cy="555.3" r="2.5"/>
  <circle class="st3" cx="230.9" cy="524.4" r="2.5"/>
  <circle class="st3" cx="282.7" cy="465.9" r="2.5"/>
  <path class="st5" d="M140.4,552.4c5-2.5,7-8.5,4.5-13.5-.3-.5-.6-1-.9-1.5l7.5-73.8h-16.3l-6,72.1c-4.3,3.6-4.8,10-1.2,14.3,3,3.6,8.1,4.6,12.3,2.5h0Z"/>
  <circle class="st5" cx="155.4" cy="399.7" r="23.1"/>
  <path class="st2" d="M159.7,506.5c-1.9,0-3.6-1.3-4.1-3.1-1.8-6.7-6.7-18.1-14.3-33.8-6.8-13.9-1-30.6,12.9-37.4,1-.5,1.9-.9,3-1.2h0c14.6-5.1,30.5,2.5,35.7,17.1,0,.3.2.5.3.8,5.9,18.6,5.6,38.4,5.2,46.1-.1,1.9-1.5,3.5-3.3,3.9l-34.4,7.5c-.3,0-.6,0-.9,0Z"/>
  <polygon class="st5" points="193.1 725.7 204.6 725.7 210.1 681.3 193.1 681.3 193.1 725.7"/>
  <path class="st0" d="M226.8,736.4h-36.2s0-14,0-14h22.2c7.7,0,14,6.3,14,14h0Z"/>
  <polygon class="st5" points="77.9 710.8 88 716.3 114.2 680 99.3 671.8 77.9 710.8"/>
  <path class="st0" d="M102.3,736.4l-31.7-17.4h0l6.7-12.3h0l19.5,10.7c6.8,3.7,9.2,12.2,5.5,19h0Z"/>
  <path class="st0" d="M192.5,701c-2.1,0-3.9-1.6-4.2-3.7l-14.4-111c-.2-1.3-1.3-2.2-2.6-2-.7,0-1.4.5-1.8,1.2l-60,108.9c-1,1.8-3.2,2.7-5.2,1.9l-13.1-5c-2.2-.8-3.3-3.3-2.4-5.5,0,0,0,0,0,0l41.6-102.2c.1-.3.2-.5.2-.8,5.6-43.6,20-65.8,24.2-71.5.6-.9.8-2,.5-3l-.6-1.8c-.5-1.4-.2-3,.8-4.1,15.3-17.5,42.1-7.9,42.4-7.8h.1s0,.2,0,.2c30,41.1,18.9,174.7,16.4,201.1-.2,2-1.8,3.7-3.9,3.8l-17.7,1.4c-.1,0-.2,0-.3,0Z"/>
  <path class="st5" d="M245.1,426.5c-.1.5-.2,1-.2,1.5l-40.4,23.3-9.8-5.6-10.5,13.7,16.4,11.7c2.7,1.9,6.4,1.8,9-.2l41.6-32.8c5.1,1.9,10.8-.7,12.7-5.8,1.9-5.1-.7-10.8-5.8-12.7-5.1-1.9-10.8.7-12.7,5.8-.1.4-.3.8-.4,1.2h0Z"/>
  <path class="st2" d="M203.2,452.5l-13,16.9c-1.4,1.8-4.1,2.2-5.9.8-.2-.1-.3-.3-.5-.4l-14.8-15.3c-5.1-4-6-11.4-2-16.5,4-5.1,11.3-6,16.4-2.1l18.5,10.4c2,1.1,2.8,3.7,1.6,5.8-.1.2-.2.4-.3.5h0Z"/>
  <path class="st2" d="M152.6,481.9l-21-3.8c-2.3-.4-3.8-2.6-3.4-4.9,0-.2,0-.4.2-.6l6.8-20.2c1.2-6.4,7.3-10.6,13.7-9.4,6.4,1.2,10.6,7.3,9.4,13.6l-.7,21.2c0,2.3-2,4.2-4.4,4.1-.2,0-.4,0-.6,0h0Z"/>
  <path class="st0" d="M159,394.4c5.9,4.1,13.7,8.2,19.8,3.9,3.9-3,5.4-8.1,3.6-12.7-2.9-8.3-10.9-11.9-18.5-14.7-9.9-3.6-20.7-6.5-30.9-3.9s-19.3,12.5-17.4,22.9c1.5,8.4,9.4,15.3,8.2,23.7-1.1,8.5-10.7,12.9-19.1,14.4s-17.8,2-23.9,8c-7.7,7.7-5.8,21.5,1.5,29.6,7.3,8.1,18.2,11.8,28.8,14.3,14.1,3.3,29.3,5.1,42.6-.4s23.7-20.3,19.9-34.3c-1.6-5.9-5.5-10.8-9.2-15.7s-7.5-9.9-8.9-15.8c-1.2-4.9-.3-10.7,3-14.4,1.2-1.3,1.4-3.3.6-4.9h0Z"/>
  <path class="st9" d="M247,736.9H57c-.6,0-1-.4-1-1s.4-1,1-1h190c.6,0,1,.4,1,1s-.4,1-1,1Z"/>
</svg>