<?xml version="1.0" encoding="UTF-8"?>
<svg id="Layer_1" xmlns="http://www.w3.org/2000/svg" version="1.1" viewBox="0 0 257 36">
  <!-- Generator: Adobe Illustrator 29.0.1, SVG Export Plug-In . SVG Version: 2.1.0 Build 192)  -->
  <defs>
    <style>
      .st0 {
        fill: #75b8bf;
      }

      .st1 {
        font-family: Montserrat-ExtraBold, Montserrat;
        font-size: 37px;
        font-weight: 700;
      }

      .st2 {
        fill: #3c6973;
      }
    </style>
  </defs>
  <path class="st2" d="M36,18c0,2.4-.5,4.7-1.4,6.9-.9,2.2-2.2,4.2-3.9,5.8-1.7,1.7-3.7,3-5.8,3.9-2.2.9-4.5,1.4-6.9,1.4s-4.7-.5-6.9-1.4c-2.2-.9-4.2-2.2-5.8-3.9-1.7-1.7-3-3.7-3.9-5.8C.5,22.7,0,20.4,0,18h9c0,1.2.2,2.4.7,3.4.5,1.1,1.1,2.1,2,2.9.8.8,1.8,1.5,2.9,2,1.1.5,2.3.7,3.4.7s2.4-.2,3.4-.7c1.1-.5,2.1-1.1,2.9-2,.8-.8,1.5-1.8,2-2.9.5-1.1.7-2.3.7-3.4h9Z"/>
  <path class="st0" d="M0,18c0-2.4.5-4.7,1.4-6.9.9-2.2,2.2-4.2,3.9-5.8,1.7-1.7,3.7-3,5.8-3.9C13.3.5,15.6,0,18,0s4.7.5,6.9,1.4c2.2.9,4.2,2.2,5.8,3.9,1.7,1.7,3,3.7,3.9,5.8.9,2.2,1.4,4.5,1.4,6.9h-9c0-1.2-.2-2.4-.7-3.4-.5-1.1-1.1-2.1-2-2.9-.8-.8-1.8-1.5-2.9-2-1.1-.5-2.3-.7-3.4-.7s-2.4.2-3.4.7c-1.1.5-2.1,1.1-2.9,2-.8.8-1.5,1.8-2,2.9-.5,1.1-.7,2.3-.7,3.4H0Z"/>
  <text class="st1" transform="translate(48.6 31.8)"><tspan x="0" y="0">ChatDash</tspan></text>
</svg>