<?xml version="1.0" encoding="UTF-8"?>
<svg id="Layer_1" xmlns="http://www.w3.org/2000/svg" version="1.1" viewBox="0 0 257 36">
  <!-- Generator: Adobe Illustrator 29.0.1, SVG Export Plug-In . SVG Version: 2.1.0 Build 192)  -->
  <defs>
    <style>
      .st0 {
        fill: #fff;
      }

      .st1 {
        fill: #75b8bf;
      }

      .st2 {
        isolation: isolate;
      }

      .st3 {
        fill: #3c6973;
      }
    </style>
  </defs>
  <path class="st3" d="M36,18c0,2.4-.5,4.7-1.4,6.9-.9,2.2-2.2,4.2-3.9,5.8-1.7,1.7-3.7,3-5.8,3.9-2.2.9-4.5,1.4-6.9,1.4s-4.7-.5-6.9-1.4-4.2-2.2-5.8-3.9c-1.7-1.7-3-3.7-3.9-5.8-.9-2.2-1.4-4.5-1.4-6.9h9c0,1.2.2,2.4.7,3.4.5,1.1,1.1,2.1,2,2.9.8.8,1.8,1.5,2.9,2s2.3.7,3.4.7,2.4-.2,3.4-.7c1.1-.5,2.1-1.1,2.9-2,.8-.8,1.5-1.8,2-2.9s.7-2.3.7-3.4h9Z"/>
  <path class="st1" d="M0,18c0-2.4.5-4.7,1.4-6.9s2.2-4.2,3.9-5.8c1.7-1.7,3.7-3,5.8-3.9C13.3.5,15.6,0,18,0s4.7.5,6.9,1.4c2.2.9,4.2,2.2,5.8,3.9,1.7,1.7,3,3.7,3.9,5.8.9,2.2,1.4,4.5,1.4,6.9h-9c0-1.2-.2-2.4-.7-3.4-.5-1.1-1.1-2.1-2-2.9-.8-.8-1.8-1.5-2.9-2s-2.3-.7-3.4-.7-2.4.2-3.4.7c-1.1.5-2.1,1.1-2.9,2-.8.8-1.5,1.8-2,2.9-.5,1.1-.7,2.3-.7,3.4H0Z"/>
  <g class="st2">
    <g class="st2">
      <path class="st0" d="M50,18.8c0-7.8,6-13.4,14.1-13.4s8.2,1.6,10.7,4.6l-3.8,3.6c-1.7-2-3.9-3-6.5-3-4.8,0-8.3,3.4-8.3,8.3s3.4,8.3,8.3,8.3,4.8-1,6.5-3.1l3.8,3.6c-2.4,3-6.2,4.6-10.7,4.6-8,0-14-5.6-14-13.4Z"/>
      <path class="st0" d="M98.7,20.4v11.4h-5.8v-10.5c0-3.2-1.5-4.7-4-4.7s-4.8,1.7-4.8,5.4v9.8h-5.8V4.3h5.8v9.6c1.6-1.6,3.8-2.4,6.3-2.4,4.7,0,8.3,2.7,8.3,8.8Z"/>
      <path class="st0" d="M121.6,20.4v11.4h-5.4v-2.5c-1.1,1.8-3.1,2.8-6.1,2.8-4.7,0-7.4-2.6-7.4-6s2.5-6,8.5-6h4.6c0-2.5-1.5-3.9-4.6-3.9s-4.3.7-5.7,1.9l-2.1-4c2.2-1.6,5.4-2.4,8.6-2.4,6.1,0,9.6,2.8,9.6,8.8ZM115.8,25.5v-2h-4c-2.7,0-3.6,1-3.6,2.3s1.2,2.4,3.3,2.4,3.6-.9,4.3-2.7Z"/>
      <path class="st0" d="M139.6,30.8c-1.2.9-2.9,1.3-4.7,1.3-4.7,0-7.4-2.4-7.4-7.1v-8.2h-3.1v-4.4h3.1v-4.8h5.8v4.8h5v4.4h-5v8.1c0,1.7.9,2.6,2.5,2.6s1.7-.3,2.3-.7l1.6,4.1Z"/>
      <path class="st0" d="M143.3,5.9h11.8c8.5,0,14.3,5.1,14.3,13s-5.8,13-14.3,13h-11.8V5.9ZM154.8,26.9c5.1,0,8.5-3.1,8.5-8s-3.4-8-8.5-8h-5.5v16.1h5.5Z"/>
      <path class="st0" d="M191,20.4v11.4h-5.4v-2.5c-1.1,1.8-3.1,2.8-6.1,2.8-4.7,0-7.4-2.6-7.4-6s2.5-6,8.5-6h4.6c0-2.5-1.5-3.9-4.6-3.9s-4.3.7-5.7,1.9l-2.1-4c2.2-1.6,5.4-2.4,8.6-2.4,6.1,0,9.6,2.8,9.6,8.8ZM185.3,25.5v-2h-4c-2.7,0-3.6,1-3.6,2.3s1.2,2.4,3.3,2.4,3.6-.9,4.3-2.7Z"/>
      <path class="st0" d="M194.3,29.9l1.9-4.1c1.8,1.1,4.5,1.9,6.9,1.9s3.7-.7,3.7-1.8c0-3.3-12,0-12-7.9s3.4-6.4,9.2-6.4,5.8.6,7.7,1.7l-1.9,4.1c-2-1.1-3.9-1.5-5.7-1.5-2.6,0-3.7.8-3.7,1.8,0,3.4,12,.1,12,8s-3.4,6.3-9.4,6.3-6.8-.9-8.6-2.1Z"/>
      <path class="st0" d="M236.3,20.4v11.4h-5.8v-10.5c0-3.2-1.5-4.7-4-4.7s-4.8,1.7-4.8,5.4v9.8h-5.8V4.3h5.8v9.6c1.6-1.6,3.8-2.4,6.3-2.4,4.7,0,8.3,2.7,8.3,8.8Z"/>
    </g>
  </g>
</svg>