<?xml version="1.0" encoding="UTF-8"?>
<svg id="Camada_1" data-name="Camada 1" xmlns="http://www.w3.org/2000/svg" viewBox="0 0 694 132">
  <defs>
    <style>
      .cls-1 {
        fill: #fff;
      }

      .cls-2 {
        fill: #75b8bf;
      }

      .cls-3 {
        fill: #3c6973;
      }
    </style>
  </defs>
  <g>
    <path class="cls-1" d="M161.44,101.77c-6.24-3.35-11.15-8.01-14.72-13.96-3.57-5.95-5.36-12.68-5.36-20.18s1.79-14.23,5.36-20.18c3.57-5.95,8.48-10.61,14.72-13.96,6.24-3.35,13.26-5.03,21.05-5.03,6.56,0,12.5,1.15,17.8,3.46,5.3,2.31,9.76,5.63,13.36,9.96l-11.26,10.39c-5.12-5.91-11.47-8.87-19.05-8.87-4.69,0-8.87,1.03-12.55,3.08-3.68,2.06-6.55,4.92-8.6,8.6-2.06,3.68-3.08,7.86-3.08,12.55s1.03,8.87,3.08,12.55c2.06,3.68,4.92,6.55,8.6,8.6,3.68,2.06,7.86,3.08,12.55,3.08,7.58,0,13.92-2.99,19.05-8.98l11.26,10.39c-3.61,4.4-8.08,7.76-13.42,10.06-5.34,2.31-11.29,3.46-17.85,3.46-7.72,0-14.7-1.68-20.94-5.03Z"/>
    <path class="cls-1" d="M277.12,52.91c4.44,4.33,6.66,10.75,6.66,19.26v33.33h-16.88v-30.73c0-4.62-1.01-8.06-3.03-10.33-2.02-2.27-4.94-3.41-8.77-3.41-4.26,0-7.65,1.32-10.17,3.95-2.52,2.63-3.79,6.55-3.79,11.74v28.78h-16.88V25.21h16.88v28.14c2.23-2.24,4.94-3.95,8.12-5.14,3.17-1.19,6.64-1.79,10.39-1.79,7.21,0,13.04,2.16,17.48,6.49Z"/>
    <path class="cls-1" d="M343.29,52.85c4.83,4.29,7.25,10.77,7.25,19.42v33.22h-15.8v-7.25c-3.18,5.41-9.09,8.12-17.75,8.12-4.47,0-8.35-.76-11.63-2.27-3.28-1.51-5.79-3.61-7.52-6.28-1.73-2.67-2.6-5.7-2.6-9.09,0-5.41,2.04-9.67,6.11-12.77,4.07-3.1,10.37-4.65,18.88-4.65h13.42c0-3.68-1.12-6.51-3.35-8.49-2.24-1.98-5.59-2.98-10.06-2.98-3.1,0-6.15.49-9.14,1.46-3,.97-5.54,2.29-7.63,3.95l-6.06-11.8c3.17-2.24,6.98-3.97,11.42-5.19,4.44-1.23,9-1.84,13.69-1.84,9.02,0,15.94,2.15,20.78,6.44ZM328.9,93c2.24-1.33,3.82-3.3,4.76-5.9v-5.95h-11.58c-6.93,0-10.39,2.27-10.39,6.82,0,2.16.85,3.88,2.54,5.14,1.7,1.26,4.02,1.89,6.98,1.89s5.45-.67,7.68-2Z"/>
    <path class="cls-1" d="M403.35,102.69c-1.66,1.23-3.7,2.15-6.11,2.76-2.42.61-4.96.92-7.63.92-6.93,0-12.28-1.77-16.07-5.3-3.79-3.53-5.68-8.73-5.68-15.58v-23.92h-8.98v-12.99h8.98v-14.18h16.88v14.18h14.5v12.99h-14.5v23.7c0,2.45.63,4.35,1.89,5.68,1.26,1.34,3.05,2,5.36,2,2.67,0,4.94-.72,6.82-2.16l4.55,11.9Z"/>
    <path class="cls-1" d="M414.06,29.75h34.41c8.22,0,15.49,1.57,21.8,4.71,6.31,3.14,11.22,7.56,14.72,13.26,3.5,5.7,5.25,12.34,5.25,19.91s-1.75,14.21-5.25,19.91c-3.5,5.7-8.41,10.12-14.72,13.26-6.31,3.14-13.58,4.71-21.8,4.71h-34.41V29.75ZM447.61,91.11c7.58,0,13.62-2.11,18.13-6.33,4.51-4.22,6.76-9.94,6.76-17.15s-2.26-12.93-6.76-17.15c-4.51-4.22-10.55-6.33-18.13-6.33h-16.01v46.96h16.01Z"/>
    <path class="cls-1" d="M546.51,52.85c4.83,4.29,7.25,10.77,7.25,19.42v33.22h-15.8v-7.25c-3.18,5.41-9.09,8.12-17.75,8.12-4.47,0-8.35-.76-11.63-2.27-3.28-1.51-5.79-3.61-7.52-6.28-1.73-2.67-2.6-5.7-2.6-9.09,0-5.41,2.04-9.67,6.11-12.77,4.07-3.1,10.37-4.65,18.88-4.65h13.42c0-3.68-1.12-6.51-3.35-8.49-2.24-1.98-5.59-2.98-10.06-2.98-3.1,0-6.15.49-9.14,1.46-3,.97-5.54,2.29-7.63,3.95l-6.06-11.8c3.17-2.24,6.98-3.97,11.42-5.19,4.44-1.23,9-1.84,13.69-1.84,9.02,0,15.94,2.15,20.78,6.44ZM532.12,93c2.24-1.33,3.82-3.3,4.76-5.9v-5.95h-11.58c-6.93,0-10.39,2.27-10.39,6.82,0,2.16.85,3.88,2.54,5.14,1.69,1.26,4.02,1.89,6.98,1.89s5.44-.67,7.68-2Z"/>
    <path class="cls-1" d="M574.43,104.58c-4.62-1.19-8.3-2.69-11.04-4.49l5.63-12.12c2.6,1.66,5.74,3.01,9.41,4.06,3.68,1.05,7.29,1.57,10.82,1.57,7.14,0,10.71-1.77,10.71-5.3,0-1.66-.97-2.85-2.92-3.57-1.95-.72-4.94-1.33-8.98-1.84-4.76-.72-8.69-1.55-11.8-2.49-3.1-.94-5.79-2.6-8.06-4.98-2.27-2.38-3.41-5.77-3.41-10.17,0-3.68,1.06-6.94,3.19-9.79,2.13-2.85,5.23-5.07,9.31-6.65,4.07-1.59,8.89-2.38,14.45-2.38,4.11,0,8.2.45,12.28,1.35,4.07.9,7.45,2.15,10.12,3.73l-5.63,12.01c-5.12-2.88-10.71-4.33-16.77-4.33-3.61,0-6.31.51-8.12,1.51-1.8,1.01-2.71,2.31-2.71,3.9,0,1.8.98,3.07,2.92,3.79,1.95.72,5.05,1.41,9.31,2.06,4.76.79,8.66,1.64,11.69,2.54,3.03.9,5.66,2.54,7.9,4.92,2.23,2.38,3.35,5.7,3.35,9.96,0,3.61-1.08,6.82-3.25,9.63-2.16,2.81-5.32,5-9.47,6.55-4.15,1.55-9.07,2.33-14.77,2.33-4.83,0-9.56-.59-14.18-1.79Z"/>
    <path class="cls-1" d="M679.34,52.91c4.44,4.33,6.66,10.75,6.66,19.26v33.33h-16.88v-30.73c0-4.62-1.01-8.06-3.03-10.33-2.02-2.27-4.94-3.41-8.77-3.41-4.26,0-7.65,1.32-10.17,3.95-2.52,2.63-3.79,6.55-3.79,11.74v28.78h-16.88V25.21h16.88v28.14c2.23-2.24,4.94-3.95,8.12-5.14,3.17-1.19,6.64-1.79,10.39-1.79,7.21,0,13.04,2.16,17.48,6.49Z"/>
  </g>
  <path class="cls-2" d="M68.4,104.98c-19.32.94-36.78-12.58-40.27-32.13-2.43-13.62,2.53-26.84,12-35.57V13.75C17.66,25.11,4.27,50.21,8.92,76.27c5.17,29,30.88,49.18,59.48,48.25v-19.54Z"/>
  <path class="cls-3" d="M124.2,55.73C118.75,25.15,90.47,4.38,60.03,7.82c-2.09.02-3.86.38-3.86.38l.11,27.88h16.15v-8.67c16.07,2.45,29.53,14.84,32.55,31.74,3.07,17.24-5.67,33.84-20.44,41.5v21.05c27.45-8.83,44.85-36.8,39.65-65.98Z"/>
</svg>