<?xml version="1.0" encoding="UTF-8"?>
<svg id="Layer_1" xmlns="http://www.w3.org/2000/svg" version="1.1" viewBox="0 0 646.5 553.4">
  <!-- Generator: Adobe Illustrator 29.0.1, SVG Export Plug-In . SVG Version: 2.1.0 Build 192)  -->
  <defs>
    <style>
      .st0 {
        fill: #fff;
      }

      .st1 {
        fill: #3f3d56;
      }

      .st2 {
        fill: #f2f2f2;
      }

      .st3 {
        fill: #3c6973;
      }

      .st4 {
        fill: #e6e6e6;
      }
    </style>
  </defs>
  <path class="st2" d="M204.4,518.3c9.3-7.8,14.9-20.2,13.4-32.2s-10.6-23.1-22.4-25.6-25.3,4.5-28.9,16.1c-2-22.3-4.3-45.5-16.1-64.5-10.7-17.2-29.3-29.5-49.5-31.7s-41.4,6.1-54,22-15.6,39-6.8,57.3c6.5,13.5,18.4,23.5,31,31.6,40.5,26.1,89,36.7,136.6,29.9"/>
  <path class="st0" d="M66.8,386.9c16.6,13.5,31.9,28.7,45.6,45.2,21.4,25.8,38.7,54.7,51.3,85.7.9,2.3-2.8,3.2-3.7,1-8-19.6-18-38.4-29.6-56.1-18.2-27.6-40.6-52.3-66.2-73.2-1.9-1.5.8-4.2,2.7-2.7Z"/>
  <path class="st2" d="M210.8,518.3c-9.3-7.8-14.9-20.2-13.4-32.2s10.6-23.1,22.4-25.6,25.3,4.5,28.9,16.1c2-22.3,4.3-45.5,16.1-64.5,10.7-17.2,29.3-29.5,49.5-31.7s41.4,6.1,54,22,15.6,39,6.8,57.3c-6.5,13.5-18.4,23.5-31,31.6-40.5,26.1-89,36.7-136.6,29.9"/>
  <path class="st0" d="M348.4,386.9c-16.6,13.5-31.9,28.7-45.6,45.2-21.4,25.8-38.7,54.7-51.3,85.7-.9,2.3,2.8,3.2,3.7,1,20.7-50.4,53.6-94.9,95.9-129.3,1.9-1.5-.8-4.2-2.7-2.7h0Z"/>
  <circle class="st2" cx="238.3" cy="221" r="31"/>
  <path class="st2" d="M142.7,114.1h213.6v11.7h-186.3c-46.1,0-83.4,37.3-83.4,83.4h0v132.8h-23.4c-2.2,0-3.9-1.7-3.9-3.9v-140.5c0-46.1,37.3-83.4,83.4-83.4h0Z"/>
  <path class="st1" d="M183.8,519v-177.5h52v177.5c0,2.5-2,4.5-4.5,4.5h-43c-2.5,0-4.5-2-4.5-4.5Z"/>
  <path class="st1" d="M48.3,338v-144.3c0-47.8,38.8-86.6,86.7-86.7h220.3v236H53.3c-2.8,0-5-2.2-5-5ZM353.3,109h-218.3c-46.7,0-84.6,37.9-84.7,84.7v144.3c0,1.7,1.3,3,3,3h300V109Z"/>
  <path class="st3" d="M238.3,237c-9.9,0-18-8.1-18-18V90c0-1.7-1.3-3-3-3h-70c-2.8,0-5-2.2-5-5v-47c0-2.8,2.2-5,5-5h104c2.8,0,5,2.2,5,5v184c0,9.9-8.1,18-18,18Z"/>
  <path class="st1" d="M363.3,105h0c31.4,0,56.9,25.3,57,56.8v164.3h112c9.4,0,17,7.6,17,16.9h-243v-181.2c0-31.4,25.6-56.8,57-56.8Z"/>
  <path class="st0" d="M349.6,198.5l11.8,48.8,230.9-55.9-11.8-48.8c-.3-1.2-1.2-2.2-2.4-2.6-.4-.2-.9-.2-1.3-.2l-133.5-69.1c-1.6-.8-3.6-.4-4.7,1.1l-64.3,89.7-24.2,33.8c0,.1-.1.3,0,.4-.5.8-.6,1.8-.4,2.7Z"/>
  <path class="st1" d="M350,195.8c0,.1,0,.2.2.3.1,0,.3.1.4,0,.1,0,.2-.1.3-.2h0c0-.1,1.3-1.9,1.3-1.9l22.9-32,64.3-89.7c.8-1.1,2.2-1.4,3.3-.8l132.4,68.6,1.2.6s0,0,.1,0c0,0,.2,0,.3,0,.1,0,.2-.1.3-.2.1-.3,0-.6-.2-.7,0,0,0,0,0,0h-.2c0,0-133.5-69.2-133.5-69.2-1.6-.8-3.6-.4-4.7,1.1l-64.3,89.7-24.2,33.8c0,.1-.1.3,0,.4Z"/>
  <path class="st4" d="M419.4,200.8l5.1.6,38.1,4.2,25.3,2.8,1.5.2,31.6-24.6,1.2-.9,7.5-5.8,26.5-20.7.2-1.5,9.4-85.1c.3-2.4-1.5-4.6-3.9-4.9l-125.9-13.9c-2.4-.3-4.6,1.5-4.9,3.9l-6.7,60-3.7,33.3-3.3,29.8-1.5,13.8-.4,4c-.3,2.4,1.5,4.6,3.9,4.9Z"/>
  <path class="st0" d="M453.9,126.2l54.5,6,19.3,2.1c3.6.4,6.8-2.2,7.2-5.8s-2.2-6.8-5.8-7.2h0l-24-2.7-49.8-5.5c-3.6-.4-6.8,2.2-7.2,5.8-.4,3.6,2.2,6.8,5.8,7.2Z"/>
  <path class="st0" d="M450.8,150.3c.1,0,.3,0,.4,0l63.3,7,10.6,1.2c3.6.4,6.8-2.2,7.2-5.8.4-3.6-2.2-6.8-5.8-7.2h0l-15.3-1.7-50.1-5.6-8.4-.9c-3.6-.4-6.8,2.2-7.2,5.8-.4,3.4,2,6.6,5.4,7.2h0Z"/>
  <path class="st0" d="M443.7,171.7c1.1,1.7,2.9,2.9,4.9,3.1l25.9,2.9,46.2,5.1h0s1.5.2,1.5.2l7.5-5.8c0-.4,0-.9,0-1.3-.3-3.1-2.7-5.5-5.8-5.8l-6.4-.7-25.5-2.8-18.3-2-23.7-2.6c-3.6-.4-6.8,2.2-7.2,5.8-.2,1.4.2,2.9.9,4.1h0Z"/>
  <path class="st0" d="M480.1,96.7l13.6,1.5,6,.7,9.1,1c3.6.4,6.8-2.2,7.2-5.8.4-3.6-2.2-6.8-5.8-7.2h0l-28.6-3.2c-3.6-.4-6.8,2.2-7.2,5.8-.4,3.6,2.2,6.8,5.8,7.2h0Z"/>
  <path class="st3" d="M369.2,132.9l16.5,68.3,27.6,5.2,25.5,4.9,27.4,5.2,8.8,1.7c1,.2,2.1,0,2.9-.7l7-5.5,4.4-3.5,31.6-24.6-20.1-82.9c-.2-.8-.6-1.6-1.2-2.2-1.1-1.1-2.6-1.5-4.1-1.1l-123.1,29.8c-2.4.6-3.9,3-3.3,5.4Z"/>
  <path class="st0" d="M407.1,187.2c.9,3.5,4.4,5.7,7.9,4.8l72.2-17.5c3.5-.9,5.7-4.4,4.8-7.9,0,0,0-.2,0-.2-1-3.4-4.4-5.4-7.8-4.6l-72.2,17.5c-3.5.9-5.7,4.4-4.8,7.9Z"/>
  <path class="st0" d="M413.3,206.5l25.5,4.9,54.1-13.1c3.5-.8,5.7-4.4,4.8-7.9-.8-3.5-4.4-5.7-7.9-4.8l-72.2,17.5c-1.5.4-2.8,1.3-3.7,2.5-.2.3-.4.6-.6,1Z"/>
  <path class="st0" d="M466.3,216.5l8.8,1.7c1,.2,2.1,0,2.9-.7l7-5.5-18.7,4.5Z"/>
  <path class="st0" d="M421.7,150.6c.9,3.5,4.4,5.7,7.9,4.8l28-6.8c3.5-.9,5.7-4.4,4.8-7.9-.2-.9-.6-1.8-1.2-2.5-1.6-2-4.2-2.9-6.7-2.3l-28,6.8c-3.5.9-5.7,4.4-4.8,7.9h0Z"/>
  <path class="st0" d="M438.9,211.3l27.4,5.2,8.8,1.7c1,.2,2.1,0,2.9-.7l7-5.5-2.5.6-5.2,4.1c-.6.5-1.4.6-2.1.5l-6.5-1.2-27.4-5.2-2.5.6ZM520.7,182.8l.3,1.1,1.2-.9-1.5-.2ZM438.9,211.3l27.4,5.2,8.8,1.7c1,.2,2.1,0,2.9-.7l7-5.5-2.5.6-5.2,4.1c-.6.5-1.4.6-2.1.5l-6.5-1.2-27.4-5.2-2.5.6ZM438.9,211.3l27.4,5.2,8.8,1.7c1,.2,2.1,0,2.9-.7l7-5.5-2.5.6-5.2,4.1c-.6.5-1.4.6-2.1.5l-6.5-1.2-27.4-5.2-2.5.6ZM349.6,198.5l30.9,127.7c.5,2,2.5,3.2,4.4,2.7l223.8-54.2c2-.5,3.2-2.5,2.7-4.4l-30.9-127.7c-.3-1.2-1.2-2.2-2.4-2.6-.4-.2-.9-.2-1.3-.2-.5,0-1,.2-1.5.4-.2.1-.4.2-.6.4l-18.4,14.3-26.7,20.8-8.9,7h0s0,0,0,0l-32.8,25.6-5.4,4.2-5.2,4.1c-.6.5-1.4.6-2.1.5l-6.5-1.2-27.4-5.2-27.4-5.2-60.1-11.4c-.5-.1-1,0-1.5,0-.7.2-1.3.5-1.8,1-.2.2-.4.4-.5.7-.5.8-.6,1.8-.4,2.7h0ZM438.9,211.3l27.4,5.2,8.8,1.7c1,.2,2.1,0,2.9-.7l7-5.5-2.5.6-5.2,4.1c-.6.5-1.4.6-2.1.5l-6.5-1.2-27.4-5.2-2.5.6ZM438.9,211.3l27.4,5.2,8.8,1.7c1,.2,2.1,0,2.9-.7l7-5.5-2.5.6-5.2,4.1c-.6.5-1.4.6-2.1.5l-6.5-1.2-27.4-5.2-2.5.6ZM438.9,211.3l27.4,5.2,8.8,1.7c1,.2,2.1,0,2.9-.7l7-5.5-2.5.6-5.2,4.1c-.6.5-1.4.6-2.1.5l-6.5-1.2-27.4-5.2-2.5.6Z"/>
  <path class="st1" d="M438.9,211.3l27.4,5.2,8.8,1.7c1,.2,2.1,0,2.9-.7l7-5.5-2.5.6-5.2,4.1c-.6.5-1.4.6-2.1.5l-6.5-1.2-27.4-5.2-2.5.6ZM520.7,182.8l.3,1.1,1.2-.9-1.5-.2ZM438.9,211.3l27.4,5.2,8.8,1.7c1,.2,2.1,0,2.9-.7l7-5.5-2.5.6-5.2,4.1c-.6.5-1.4.6-2.1.5l-6.5-1.2-27.4-5.2-2.5.6ZM438.9,211.3l27.4,5.2,8.8,1.7c1,.2,2.1,0,2.9-.7l7-5.5-2.5.6-5.2,4.1c-.6.5-1.4.6-2.1.5l-6.5-1.2-27.4-5.2-2.5.6ZM351,195.9h.1c0,0,0,0,0,0,.6-.6,1.5-.9,2.4-.8l59.7,11.4,25.5,4.9,27.4,5.2,8.8,1.7c1,.2,2.1,0,2.9-.7l7-5.5-2.5.6-5.2,4.1c-.6.5-1.4.6-2.1.5l-6.5-1.2-27.4-5.2-27.4-5.2-60.1-11.4c-.5-.1-1,0-1.5,0l-1.3,1.8ZM349.6,198.5l30.9,127.7c.5,2,2.5,3.2,4.4,2.7l223.8-54.2c2-.5,3.2-2.5,2.7-4.4l-30.9-127.7c-.3-1.2-1.2-2.2-2.4-2.6-.4-.2-.9-.2-1.3-.2-.5,0-1,.2-1.5.4-.2.1-.4.2-.6.4l-18.4,14.3-26.7,20.8-8.9,7h0s0,0,0,0l-32.8,25.6-5.4,4.2-5.2,4.1c-.6.5-1.4.6-2.1.5l-6.5-1.2-27.4-5.2-27.4-5.2-60.1-11.4c-.5-.1-1,0-1.5,0-.7.2-1.3.5-1.8,1-.2.2-.4.4-.5.7-.5.8-.6,1.8-.4,2.7h0ZM350.6,198.3c-.2-.8,0-1.6.5-2.2,0,0,0,0,0-.1,0,0,0,0,0-.1.6-.6,1.5-.9,2.4-.8l59.7,11.4,25.5,4.9,27.4,5.2,8.8,1.7c1,.2,2.1,0,2.9-.7l7-5.5,4.4-3.5,31.5-24.6,1.2-.9,7.4-5.8,26.5-20.7,19.2-15c.3-.2.6-.4,1-.5.1,0,.2,0,.3,0,0,0,.2,0,.3,0,.3,0,.6,0,.9.1.8.3,1.5,1,1.7,1.9l30.9,127.7c.3,1.4-.5,2.8-1.9,3.2,0,0,0,0,0,0l-223.8,54.2c-1.4.3-2.8-.5-3.2-1.9l-30.9-127.7ZM438.9,211.3l27.4,5.2,8.8,1.7c1,.2,2.1,0,2.9-.7l7-5.5-2.5.6-5.2,4.1c-.6.5-1.4.6-2.1.5l-6.5-1.2-27.4-5.2-2.5.6ZM438.9,211.3l27.4,5.2,8.8,1.7c1,.2,2.1,0,2.9-.7l7-5.5-2.5.6-5.2,4.1c-.6.5-1.4.6-2.1.5l-6.5-1.2-27.4-5.2-2.5.6ZM438.9,211.3l27.4,5.2,8.8,1.7c1,.2,2.1,0,2.9-.7l7-5.5-2.5.6-5.2,4.1c-.6.5-1.4.6-2.1.5l-6.5-1.2-27.4-5.2-2.5.6Z"/>
  <path class="st3" d="M550.4,249.7c-1-4.4,1.6-8.7,6-9.8l28.2-6.8c4.4-1,8.7,1.7,9.8,6,1,4.3-1.6,8.7-6,9.8l-28.2,6.8c-4.4,1-8.7-1.6-9.8-6Z"/>
  <circle class="st0" cx="238.3" cy="219" r="7"/>
</svg>